# WaveFront *.obj file (generated by Autodesk ATF)

mtllib 5560f4a4-3728-46f1-8ba9-1e1d40d51ee8.mtl

g Body1

v 4.077756 -1.627953 0.000000
v 3.827756 -1.627953 0.000000
v 3.827756 -1.627953 0.062500
v 4.077756 -1.627953 0.062500
v 4.077756 -1.127953 0.000000
v 4.077756 -1.127953 0.062500
v 3.827756 -1.127953 0.000000
v 3.827756 -1.127953 0.062500
v -3.827756 -1.627953 0.000000
v -4.077756 -1.627953 0.000000
v -4.077756 -1.627953 0.062500
v -3.827756 -1.627953 0.062500
v -3.827756 -1.127953 0.000000
v -3.827756 -1.127953 0.062500
v -4.077756 -1.127953 0.000000
v -4.077756 -1.127953 0.062500
v 4.077756 1.127953 0.000000
v 3.827756 1.127953 0.000000
v 3.827756 1.127953 0.062500
v 4.077756 1.127953 0.062500
v 4.077756 1.627953 0.000000
v 4.077756 1.627953 0.062500
v 3.827756 1.627953 0.000000
v 3.827756 1.627953 0.062500
v -3.827756 1.127953 0.000000
v -4.077756 1.127953 0.000000
v -4.077756 1.127953 0.062500
v -3.827756 1.127953 0.062500
v -3.827756 1.627953 0.000000
v -3.827756 1.627953 0.062500
v -4.077756 1.627953 0.000000
v -4.077756 1.627953 0.062500
v -2.500000 0.625000 0.000000
v 2.500000 0.625000 0.000000
v 2.500000 0.625000 0.062500
v -2.500000 0.625000 0.062500
v -2.500000 -0.625000 0.000000
v -2.500000 -0.625000 0.062500
v 2.500000 -0.625000 0.000000
v 2.500000 -0.625000 0.062500
v -4.750000 -2.500000 0.000000
v 4.750000 -2.500000 0.000000
v 4.750000 -2.500000 0.062500
v -4.750000 -2.500000 0.062500
v -4.750000 2.500000 0.000000
v -4.750000 2.500000 0.062500
v 4.750000 2.500000 0.000000
v 4.750000 2.500000 0.062500
vt -0.000000 0.158750 0.000000
vt -0.635000 0.158750 0.000000
vt 0.000000 0.000000 0.000000
vt -0.635000 0.000000 0.000000
vt -0.000000 0.158750 0.000000
vt -1.270000 0.158750 0.000000
vt 0.000000 0.000000 0.000000
vt -1.270000 0.000000 0.000000
vt -0.000000 0.158750 0.000000
vt -0.635000 0.158750 0.000000
vt -0.000000 0.000000 0.000000
vt -0.635000 0.000000 0.000000
vt -0.000000 0.158750 0.000000
vt -1.270000 0.158750 0.000000
vt -0.000000 0.000000 0.000000
vt -1.270000 0.000000 0.000000
vt -0.000000 0.158750 0.000000
vt -0.635000 0.158750 0.000000
vt 0.000000 0.000000 0.000000
vt -0.635000 0.000000 0.000000
vt -0.000000 0.158750 0.000000
vt -1.270000 0.158750 0.000000
vt 0.000000 0.000000 0.000000
vt -1.270000 0.000000 0.000000
vt -0.000000 0.158750 0.000000
vt -0.635000 0.158750 0.000000
vt -0.000000 0.000000 0.000000
vt -0.635000 0.000000 0.000000
vt -0.000000 0.158750 0.000000
vt -1.270000 0.158750 0.000000
vt -0.000000 0.000000 0.000000
vt -1.270000 0.000000 0.000000
vt -0.000000 0.158750 0.000000
vt -0.635000 0.158750 0.000000
vt 0.000000 0.000000 0.000000
vt -0.635000 0.000000 0.000000
vt -0.000000 0.158750 0.000000
vt -1.270000 0.158750 0.000000
vt 0.000000 0.000000 0.000000
vt -1.270000 0.000000 0.000000
vt -0.000000 0.158750 0.000000
vt -0.635000 0.158750 0.000000
vt -0.000000 0.000000 0.000000
vt -0.635000 0.000000 0.000000
vt -0.000000 0.158750 0.000000
vt -1.270000 0.158750 0.000000
vt -0.000000 0.000000 0.000000
vt -1.270000 0.000000 0.000000
vt -0.000000 0.158750 0.000000
vt -0.635000 0.158750 0.000000
vt 0.000000 0.000000 0.000000
vt -0.635000 0.000000 0.000000
vt -0.000000 0.158750 0.000000
vt -1.270000 0.158750 0.000000
vt 0.000000 0.000000 0.000000
vt -1.270000 0.000000 0.000000
vt -0.000000 0.158750 0.000000
vt -0.635000 0.158750 0.000000
vt -0.000000 0.000000 0.000000
vt -0.635000 0.000000 0.000000
vt -0.000000 0.158750 0.000000
vt -1.270000 0.158750 0.000000
vt -0.000000 0.000000 0.000000
vt -1.270000 0.000000 0.000000
vt 0.000000 0.000000 0.000000
vt 12.700000 0.000000 0.000000
vt 0.000000 0.158750 0.000000
vt 12.700000 0.158750 0.000000
vt 0.000000 0.000000 0.000000
vt 3.175000 0.000000 0.000000
vt 0.000000 0.158750 0.000000
vt 3.175000 0.158750 0.000000
vt -0.000000 0.000000 0.000000
vt 12.700000 0.000000 0.000000
vt -0.000000 0.158750 0.000000
vt 12.700000 0.158750 0.000000
vt -0.000000 0.000000 0.000000
vt 3.175000 0.000000 0.000000
vt -0.000000 0.158750 0.000000
vt 3.175000 0.158750 0.000000
vt 0.000000 0.000000 0.000000
vt 24.130000 0.000000 0.000000
vt 0.000000 0.158750 0.000000
vt 24.130000 0.158750 0.000000
vt 0.000000 0.000000 0.000000
vt 12.700000 0.000000 0.000000
vt 0.000000 0.158750 0.000000
vt 12.700000 0.158750 0.000000
vt 0.000000 0.000000 0.000000
vt 24.130000 0.000000 0.000000
vt 0.000000 0.158750 0.000000
vt 24.130000 0.158750 0.000000
vt 0.000000 0.000000 0.000000
vt 12.700000 0.000000 0.000000
vt 0.000000 0.158750 0.000000
vt 12.700000 0.158750 0.000000
vt 10.357500 -2.865000 0.000000
vt 10.357500 -4.135000 0.000000
vt 12.065000 -6.350000 0.000000
vt 9.722500 -4.135000 0.000000
vt -9.722500 -4.135000 0.000000
vt -6.350000 -1.587500 0.000000
vt -9.722500 -2.865000 0.000000
vt -10.357500 -2.865000 0.000000
vt -6.350000 1.587500 0.000000
vt -10.357500 2.865000 0.000000
vt -9.722500 2.865000 0.000000
vt -9.722500 4.135000 0.000000
vt 6.350000 1.587500 0.000000
vt 9.722500 4.135000 0.000000
vt 9.722500 2.865000 0.000000
vt 10.357500 2.865000 0.000000
vt 6.350000 -1.587500 0.000000
vt 9.722500 -2.865000 0.000000
vt -12.065000 -6.350000 0.000000
vt -10.357500 -4.135000 0.000000
vt 10.357500 4.135000 0.000000
vt 12.065000 6.350000 0.000000
vt -12.065000 6.350000 0.000000
vt -10.357500 4.135000 0.000000
vt -10.357500 -4.135000 0.000000
vt -12.065000 -6.350000 0.000000
vt -9.722500 -4.135000 0.000000
vt 12.065000 -6.350000 0.000000
vt 9.722500 -4.135000 0.000000
vt 10.357500 -4.135000 0.000000
vt 10.357500 -2.865000 0.000000
vt 10.357500 2.865000 0.000000
vt 6.350000 1.587500 0.000000
vt 9.722500 2.865000 0.000000
vt 9.722500 4.135000 0.000000
vt -10.357500 -2.865000 0.000000
vt -10.357500 2.865000 0.000000
vt -12.065000 6.350000 0.000000
vt -10.357500 4.135000 0.000000
vt -9.722500 4.135000 0.000000
vt -9.722500 -2.865000 0.000000
vt -6.350000 -1.587500 0.000000
vt -6.350000 1.587500 0.000000
vt -9.722500 2.865000 0.000000
vt 6.350000 -1.587500 0.000000
vt 9.722500 -2.865000 0.000000
vt 10.357500 4.135000 0.000000
vt 12.065000 6.350000 0.000000
vn -0.000000 2.540000 -0.000000
vn -0.000000 2.540000 -0.000000
vn -0.000000 2.540000 -0.000000
vn -0.000000 2.540000 -0.000000
vn -2.540000 0.000000 -0.000000
vn -2.540000 0.000000 -0.000000
vn -2.540000 0.000000 -0.000000
vn -2.540000 0.000000 -0.000000
vn 0.000000 -2.540000 0.000000
vn 0.000000 -2.540000 0.000000
vn 0.000000 -2.540000 0.000000
vn 0.000000 -2.540000 0.000000
vn 2.540000 0.000000 0.000000
vn 2.540000 0.000000 0.000000
vn 2.540000 0.000000 0.000000
vn 2.540000 0.000000 0.000000
vn -0.000000 2.540000 -0.000000
vn -0.000000 2.540000 -0.000000
vn -0.000000 2.540000 -0.000000
vn -0.000000 2.540000 -0.000000
vn -2.540000 0.000000 -0.000000
vn -2.540000 0.000000 -0.000000
vn -2.540000 0.000000 -0.000000
vn -2.540000 0.000000 -0.000000
vn 0.000000 -2.540000 0.000000
vn 0.000000 -2.540000 0.000000
vn 0.000000 -2.540000 0.000000
vn 0.000000 -2.540000 0.000000
vn 2.540000 0.000000 0.000000
vn 2.540000 0.000000 0.000000
vn 2.540000 0.000000 0.000000
vn 2.540000 0.000000 0.000000
vn -0.000000 2.540000 -0.000000
vn -0.000000 2.540000 -0.000000
vn -0.000000 2.540000 -0.000000
vn -0.000000 2.540000 -0.000000
vn -2.540000 0.000000 -0.000000
vn -2.540000 0.000000 -0.000000
vn -2.540000 0.000000 -0.000000
vn -2.540000 0.000000 -0.000000
vn 0.000000 -2.540000 0.000000
vn 0.000000 -2.540000 0.000000
vn 0.000000 -2.540000 0.000000
vn 0.000000 -2.540000 0.000000
vn 2.540000 0.000000 0.000000
vn 2.540000 0.000000 0.000000
vn 2.540000 0.000000 0.000000
vn 2.540000 0.000000 0.000000
vn -0.000000 2.540000 -0.000000
vn -0.000000 2.540000 -0.000000
vn -0.000000 2.540000 -0.000000
vn -0.000000 2.540000 -0.000000
vn -2.540000 0.000000 -0.000000
vn -2.540000 0.000000 -0.000000
vn -2.540000 0.000000 -0.000000
vn -2.540000 0.000000 -0.000000
vn 0.000000 -2.540000 0.000000
vn 0.000000 -2.540000 0.000000
vn 0.000000 -2.540000 0.000000
vn 0.000000 -2.540000 0.000000
vn 2.540000 0.000000 0.000000
vn 2.540000 0.000000 0.000000
vn 2.540000 0.000000 0.000000
vn 2.540000 0.000000 0.000000
vn 0.000000 -2.540000 0.000000
vn 0.000000 -2.540000 0.000000
vn 0.000000 -2.540000 0.000000
vn 0.000000 -2.540000 0.000000
vn 2.540000 0.000000 0.000000
vn 2.540000 0.000000 0.000000
vn 2.540000 0.000000 0.000000
vn 2.540000 0.000000 0.000000
vn 0.000000 2.540000 0.000000
vn 0.000000 2.540000 0.000000
vn 0.000000 2.540000 0.000000
vn 0.000000 2.540000 0.000000
vn -2.540000 0.000000 0.000000
vn -2.540000 0.000000 0.000000
vn -2.540000 0.000000 0.000000
vn -2.540000 0.000000 0.000000
vn -0.000000 -2.540000 0.000000
vn -0.000000 -2.540000 0.000000
vn -0.000000 -2.540000 0.000000
vn -0.000000 -2.540000 0.000000
vn -2.540000 -0.000000 0.000000
vn -2.540000 -0.000000 0.000000
vn -2.540000 -0.000000 0.000000
vn -2.540000 -0.000000 0.000000
vn 0.000000 2.540000 0.000000
vn 0.000000 2.540000 0.000000
vn 0.000000 2.540000 0.000000
vn 0.000000 2.540000 0.000000
vn 2.540000 0.000000 0.000000
vn 2.540000 0.000000 0.000000
vn 2.540000 0.000000 0.000000
vn 2.540000 0.000000 0.000000
vn 0.000000 0.000000 2.540000
vn 0.000000 0.000000 2.540000
vn 0.000000 0.000000 2.540000
vn 0.000000 0.000000 2.540000
vn 0.000000 0.000000 2.540000
vn 0.000000 0.000000 2.540000
vn 0.000000 0.000000 2.540000
vn 0.000000 0.000000 2.540000
vn 0.000000 0.000000 2.540000
vn 0.000000 0.000000 2.540000
vn 0.000000 0.000000 2.540000
vn 0.000000 0.000000 2.540000
vn 0.000000 0.000000 2.540000
vn 0.000000 0.000000 2.540000
vn 0.000000 0.000000 2.540000
vn 0.000000 0.000000 2.540000
vn 0.000000 0.000000 2.540000
vn 0.000000 0.000000 2.540000
vn 0.000000 0.000000 2.540000
vn 0.000000 0.000000 2.540000
vn 0.000000 0.000000 2.540000
vn 0.000000 0.000000 2.540000
vn 0.000000 0.000000 2.540000
vn 0.000000 0.000000 2.540000
vn 0.000000 0.000000 -2.540000
vn 0.000000 0.000000 -2.540000
vn 0.000000 0.000000 -2.540000
vn 0.000000 0.000000 -2.540000
vn 0.000000 0.000000 -2.540000
vn 0.000000 0.000000 -2.540000
vn 0.000000 0.000000 -2.540000
vn 0.000000 0.000000 -2.540000
vn 0.000000 0.000000 -2.540000
vn 0.000000 0.000000 -2.540000
vn 0.000000 0.000000 -2.540000
vn 0.000000 0.000000 -2.540000
vn 0.000000 0.000000 -2.540000
vn 0.000000 0.000000 -2.540000
vn 0.000000 0.000000 -2.540000
vn 0.000000 0.000000 -2.540000
vn 0.000000 0.000000 -2.540000
vn 0.000000 0.000000 -2.540000
vn 0.000000 0.000000 -2.540000
vn 0.000000 0.000000 -2.540000
vn 0.000000 0.000000 -2.540000
vn 0.000000 0.000000 -2.540000
vn 0.000000 0.000000 -2.540000
vn 0.000000 0.000000 -2.540000
usemtl Steel_-_Satin
f 1/1/1 2/2/2 4/3/3
f 4/3/3 2/2/2 3/4/4
f 5/5/5 1/6/6 6/7/7
f 6/7/7 1/6/6 4/8/8
f 7/9/9 5/10/10 8/11/11
f 8/11/11 5/10/10 6/12/12
f 2/13/13 7/14/14 3/15/15
f 3/15/15 7/14/14 8/16/16
f 9/17/17 10/18/18 12/19/19
f 12/19/19 10/18/18 11/20/20
f 13/21/21 9/22/22 14/23/23
f 14/23/23 9/22/22 12/24/24
f 15/25/25 13/26/26 16/27/27
f 16/27/27 13/26/26 14/28/28
f 10/29/29 15/30/30 11/31/31
f 11/31/31 15/30/30 16/32/32
f 17/33/33 18/34/34 20/35/35
f 20/35/35 18/34/34 19/36/36
f 21/37/37 17/38/38 22/39/39
f 22/39/39 17/38/38 20/40/40
f 23/41/41 21/42/42 24/43/43
f 24/43/43 21/42/42 22/44/44
f 18/45/45 23/46/46 19/47/47
f 19/47/47 23/46/46 24/48/48
f 25/49/49 26/50/50 28/51/51
f 28/51/51 26/50/50 27/52/52
f 29/53/53 25/54/54 30/55/55
f 30/55/55 25/54/54 28/56/56
f 31/57/57 29/58/58 32/59/59
f 32/59/59 29/58/58 30/60/60
f 26/61/61 31/62/62 27/63/63
f 27/63/63 31/62/62 32/64/64
f 33/65/65 34/66/66 36/67/67
f 36/67/67 34/66/66 35/68/68
f 37/69/69 33/70/70 38/71/71
f 38/71/71 33/70/70 36/72/72
f 39/73/73 37/74/74 40/75/75
f 40/75/75 37/74/74 38/76/76
f 34/77/77 39/78/78 35/79/79
f 35/79/79 39/78/78 40/80/80
f 41/81/81 42/82/82 44/83/83
f 44/83/83 42/82/82 43/84/84
f 45/85/85 41/86/86 46/87/87
f 46/87/87 41/86/86 44/88/88
f 47/89/89 45/90/90 48/91/91
f 48/91/91 45/90/90 46/92/92
f 42/93/93 47/94/94 43/95/95
f 43/95/95 47/94/94 48/96/96
f 6/97/97 4/98/98 43/99/99
f 43/99/99 4/98/98 3/100/100
f 43/99/99 3/100/100 12/101/101
f 12/101/101 3/100/100 38/102/102
f 12/101/101 38/102/102 14/103/103
f 14/103/103 38/102/102 16/104/104
f 16/104/104 38/102/102 36/105/105
f 16/104/104 36/105/105 27/106/106
f 27/106/106 36/105/105 28/107/107
f 28/107/107 36/105/105 30/108/108
f 30/108/108 36/105/105 35/109/109
f 30/108/108 35/109/109 24/110/110
f 24/110/110 35/109/109 19/111/111
f 19/111/111 35/109/109 20/112/112
f 20/112/112 35/109/109 6/97/97
f 20/112/112 6/97/97 43/99/99
f 38/102/102 3/100/100 40/113/113
f 40/113/113 3/100/100 8/114/114
f 40/113/113 8/114/114 6/97/97
f 43/99/99 12/101/101 44/115/115
f 44/115/115 12/101/101 11/116/116
f 44/115/115 11/116/116 16/104/104
f 22/117/117 48/118/118 24/110/110
f 24/110/110 48/118/118 46/119/119
f 24/110/110 46/119/119 30/108/108
f 30/108/108 46/119/119 32/120/120
f 32/120/120 46/119/119 27/106/106
f 27/106/106 46/119/119 44/115/115
f 27/106/106 44/115/115 16/104/104
f 22/117/117 20/112/112 48/118/118
f 48/118/118 20/112/112 43/99/99
f 35/109/109 40/113/113 6/97/97
f 1/121/121 42/122/122 2/123/123
f 2/123/123 42/122/122 41/124/124
f 2/123/123 41/124/124 9/125/125
f 9/125/125 41/124/124 10/126/126
f 10/126/126 41/124/124 15/127/127
f 15/127/127 41/124/124 26/128/128
f 15/127/127 26/128/128 33/129/129
f 33/129/129 26/128/128 25/130/130
f 33/129/129 25/130/130 29/131/131
f 1/121/121 5/132/132 42/122/122
f 42/122/122 5/132/132 17/133/133
f 42/122/122 17/133/133 47/134/134
f 47/134/134 17/133/133 21/135/135
f 47/134/134 21/135/135 23/136/136
f 7/137/137 39/138/138 5/132/132
f 5/132/132 39/138/138 34/139/139
f 5/132/132 34/139/139 17/133/133
f 17/133/133 34/139/139 18/140/140
f 18/140/140 34/139/139 23/136/136
f 23/136/136 34/139/139 33/129/129
f 23/136/136 33/129/129 29/131/131
f 7/137/137 2/123/123 39/138/138
f 39/138/138 2/123/123 9/125/125
f 39/138/138 9/125/125 37/141/141
f 37/141/141 9/125/125 13/142/142
f 37/141/141 13/142/142 15/127/127
f 31/143/143 45/144/144 29/131/131
f 29/131/131 45/144/144 47/134/134
f 29/131/131 47/134/134 23/136/136
f 31/143/143 26/128/128 45/144/144
f 45/144/144 26/128/128 41/124/124
f 33/129/129 37/141/141 15/127/127
# 48 vertices
# 144 texture params
# 144 normals
# 112 facets

# 1 groups
